<svg xmlns="http://www.w3.org/2000/svg" xmlns:xlink="http://www.w3.org/1999/xlink" width="177" zoomAndPan="magnify" viewBox="0 0 132.75 125.999998" height="168" preserveAspectRatio="xMidYMid meet" version="1.0"><defs><clipPath id="9dc0b94bb1"><path d="M 14.136719 4 L 104 4 L 104 122 L 14.136719 122 Z M 14.136719 4 " clip-rule="nonzero"/></clipPath></defs><g clip-path="url(#9dc0b94bb1)"><path fill="#007bff" d="M 103.617188 43.890625 L 103.617188 19.488281 C 103.617188 15.53125 102.046875 11.738281 99.253906 8.9375 C 96.453125 6.144531 92.65625 4.574219 88.703125 4.574219 C 73.136719 4.574219 44.621094 4.574219 29.050781 4.574219 C 25.097656 4.574219 21.300781 6.144531 18.503906 8.9375 C 15.710938 11.738281 14.136719 15.53125 14.136719 19.488281 C 14.136719 40.269531 14.136719 85.476562 14.136719 106.257812 C 14.136719 110.210938 15.710938 114.007812 18.503906 116.804688 C 21.300781 119.597656 25.097656 121.171875 29.050781 121.171875 C 39.410156 121.171875 53.453125 121.171875 53.453125 121.171875 C 55.699219 121.171875 57.523438 119.347656 57.523438 117.101562 C 57.523438 114.859375 55.699219 113.035156 53.453125 113.035156 C 53.453125 113.035156 39.410156 113.035156 29.050781 113.035156 C 27.25 113.035156 25.53125 112.320312 24.257812 111.050781 C 22.988281 109.777344 22.269531 108.058594 22.269531 106.257812 L 22.269531 19.488281 C 22.269531 17.6875 22.988281 15.96875 24.257812 14.691406 C 25.53125 13.421875 27.25 12.707031 29.050781 12.707031 L 88.703125 12.707031 C 90.503906 12.707031 92.222656 13.421875 93.5 14.691406 C 94.769531 15.96875 95.484375 17.6875 95.484375 19.488281 L 95.484375 43.890625 C 95.484375 46.136719 97.304688 47.957031 99.550781 47.957031 C 101.796875 47.957031 103.617188 46.136719 103.617188 43.890625 Z M 103.617188 43.890625 " fill-opacity="1" fill-rule="evenodd"/></g><path fill="#007bff" d="M 115.457031 74.601562 C 118.464844 70.3125 117.421875 64.390625 113.128906 61.386719 L 104.242188 55.164062 C 99.953125 52.160156 94.03125 53.203125 91.027344 57.496094 C 83.730469 67.910156 66.140625 93.035156 66.140625 93.035156 C 65.78125 93.550781 65.542969 94.148438 65.449219 94.769531 L 62.691406 113.398438 C 62.308594 115.9375 63.398438 118.46875 65.503906 119.945312 C 67.609375 121.417969 70.363281 121.578125 72.621094 120.351562 L 89.183594 111.386719 C 89.734375 111.082031 90.210938 110.660156 90.574219 110.144531 Z M 71.132812 111.90625 L 73.355469 96.914062 C 73.355469 96.914062 97.691406 62.160156 97.691406 62.160156 C 98.121094 61.546875 98.964844 61.398438 99.578125 61.832031 C 99.578125 61.832031 108.460938 68.050781 108.460938 68.050781 C 109.074219 68.480469 109.226562 69.324219 108.796875 69.9375 L 84.464844 104.6875 Z M 71.132812 111.90625 " fill-opacity="1" fill-rule="evenodd"/><path fill="#007bff" d="M 108.238281 77.824219 L 90.46875 65.382812 C 88.628906 64.089844 86.089844 64.542969 84.804688 66.378906 C 83.519531 68.21875 83.964844 70.757812 85.804688 72.046875 L 103.574219 84.488281 C 105.414062 85.773438 107.953125 85.328125 109.238281 83.492188 C 110.527344 81.652344 110.078125 79.113281 108.238281 77.824219 Z M 108.238281 77.824219 " fill-opacity="1" fill-rule="evenodd"/><path fill="#007bff" d="M 34.472656 34.398438 L 83.28125 34.398438 C 85.527344 34.398438 87.347656 32.578125 87.347656 30.332031 C 87.347656 28.085938 85.527344 26.265625 83.28125 26.265625 L 34.472656 26.265625 C 32.226562 26.265625 30.40625 28.085938 30.40625 30.332031 C 30.40625 32.578125 32.226562 34.398438 34.472656 34.398438 Z M 34.472656 34.398438 " fill-opacity="1" fill-rule="evenodd"/><path fill="#007bff" d="M 34.472656 53.382812 L 50.742188 53.382812 C 52.988281 53.382812 54.808594 51.558594 54.808594 49.3125 C 54.808594 47.070312 52.988281 45.246094 50.742188 45.246094 L 34.472656 45.246094 C 32.226562 45.246094 30.40625 47.070312 30.40625 49.3125 C 30.40625 51.558594 32.226562 53.382812 34.472656 53.382812 Z M 34.472656 53.382812 " fill-opacity="1" fill-rule="evenodd"/><path fill="#007bff" d="M 64.300781 53.382812 L 77.859375 53.382812 C 80.101562 53.382812 81.925781 51.558594 81.925781 49.3125 C 81.925781 47.070312 80.101562 45.246094 77.859375 45.246094 L 64.300781 45.246094 C 62.054688 45.246094 60.234375 47.070312 60.234375 49.3125 C 60.234375 51.558594 62.054688 53.382812 64.300781 53.382812 Z M 64.300781 53.382812 " fill-opacity="1" fill-rule="evenodd"/><path fill="#007bff" d="M 34.472656 72.363281 L 61.589844 72.363281 C 63.835938 72.363281 65.65625 70.539062 65.65625 68.292969 C 65.65625 66.050781 63.835938 64.226562 61.589844 64.226562 L 34.472656 64.226562 C 32.226562 64.226562 30.40625 66.050781 30.40625 68.292969 C 30.40625 70.539062 32.226562 72.363281 34.472656 72.363281 Z M 34.472656 72.363281 " fill-opacity="1" fill-rule="evenodd"/></svg>