<svg xmlns="http://www.w3.org/2000/svg" xmlns:xlink="http://www.w3.org/1999/xlink" width="356" zoomAndPan="magnify" viewBox="0 0 267 266.999984" height="356" preserveAspectRatio="xMidYMid meet" version="1.0"><defs><clipPath id="97fdc2a85f"><path d="M 0 0 L 266.785156 0 L 266.785156 266.785156 L 0 266.785156 Z M 0 0 " clip-rule="nonzero"/></clipPath><clipPath id="28bda1ff3e"><path d="M 133.390625 0 C 59.722656 0 0 59.722656 0 133.390625 C 0 207.0625 59.722656 266.785156 133.390625 266.785156 C 207.0625 266.785156 266.785156 207.0625 266.785156 133.390625 C 266.785156 59.722656 207.0625 0 133.390625 0 Z M 133.390625 0 " clip-rule="nonzero"/></clipPath><clipPath id="b8e1472db3"><path d="M 0 0 L 266.785156 0 L 266.785156 266.785156 L 0 266.785156 Z M 0 0 " clip-rule="nonzero"/></clipPath><clipPath id="b2555f19a2"><path d="M 133.390625 0 C 59.722656 0 0 59.722656 0 133.390625 C 0 207.0625 59.722656 266.785156 133.390625 266.785156 C 207.0625 266.785156 266.785156 207.0625 266.785156 133.390625 C 266.785156 59.722656 207.0625 0 133.390625 0 Z M 133.390625 0 " clip-rule="nonzero"/></clipPath><clipPath id="7aa7bcaf1d"><rect x="0" width="267" y="0" height="267"/></clipPath><clipPath id="11ff31a871"><path d="M 58.351562 46.390625 L 208.351562 46.390625 L 208.351562 220.390625 L 58.351562 220.390625 Z M 58.351562 46.390625 " clip-rule="nonzero"/></clipPath></defs><g clip-path="url(#97fdc2a85f)"><g clip-path="url(#28bda1ff3e)"><g transform="matrix(1, 0, 0, 1, 0, -0.000000000000018633)"><g clip-path="url(#7aa7bcaf1d)"><g clip-path="url(#b8e1472db3)"><g clip-path="url(#b2555f19a2)"><path fill="#f3f7ff" d="M 0 0 L 266.785156 0 L 266.785156 266.785156 L 0 266.785156 Z M 0 0 " fill-opacity="1" fill-rule="nonzero"/></g></g></g></g></g></g><path fill="#1682ff" d="M 122.28125 178.738281 C 121.027344 177.484375 118.996094 177.484375 117.738281 178.738281 L 108.863281 187.613281 C 108.261719 188.214844 107.925781 189.03125 107.925781 189.882812 C 107.925781 190.734375 108.261719 191.550781 108.863281 192.15625 L 117.738281 201.03125 C 118.367188 201.65625 119.1875 201.96875 120.011719 201.96875 C 120.832031 201.96875 121.652344 201.65625 122.28125 201.03125 C 123.535156 199.777344 123.535156 197.742188 122.28125 196.488281 L 115.675781 189.882812 L 122.28125 183.277344 C 123.535156 182.023438 123.535156 179.992188 122.28125 178.738281 Z M 122.28125 178.738281 " fill-opacity="1" fill-rule="nonzero"/><path fill="#1682ff" d="M 148.078125 178.738281 C 146.824219 177.484375 144.792969 177.484375 143.535156 178.738281 C 142.28125 179.992188 142.28125 182.023438 143.535156 183.277344 L 150.140625 189.882812 L 143.535156 196.488281 C 142.28125 197.742188 142.28125 199.777344 143.535156 201.03125 C 144.164062 201.65625 144.984375 201.96875 145.808594 201.96875 C 146.628906 201.96875 147.453125 201.65625 148.078125 201.03125 L 156.953125 192.15625 C 157.554688 191.550781 157.894531 190.734375 157.894531 189.882812 C 157.894531 189.03125 157.554688 188.214844 156.953125 187.613281 Z M 148.078125 178.738281 " fill-opacity="1" fill-rule="nonzero"/><path fill="#1682ff" d="M 137.277344 174.027344 C 135.574219 173.527344 133.789062 174.5 133.289062 176.199219 L 125.417969 202.9375 C 124.917969 204.636719 125.890625 206.421875 127.59375 206.925781 C 127.894531 207.011719 128.199219 207.054688 128.5 207.054688 C 129.886719 207.054688 131.167969 206.148438 131.578125 204.75 L 139.449219 178.015625 C 139.949219 176.3125 138.976562 174.527344 137.277344 174.027344 Z M 137.277344 174.027344 " fill-opacity="1" fill-rule="nonzero"/><g clip-path="url(#11ff31a871)"><path fill="#000000" d="M 205.101562 213.964844 L 182.867188 213.964844 C 183.132812 213.207031 183.304688 212.40625 183.371094 211.574219 L 190.589844 211.574219 C 194.398438 211.574219 197.859375 209.804688 200.082031 206.71875 C 202.296875 203.640625 202.875 199.8125 201.671875 196.214844 C 198.988281 188.195312 196.496094 180.902344 194.261719 174.535156 C 188.636719 158.503906 164.503906 147.625 160.96875 146.105469 L 152.730469 139.804688 C 151.871094 139.148438 150.773438 138.992188 149.792969 139.308594 L 149.792969 132.394531 C 156.15625 127.972656 160.644531 121.046875 161.820312 113.050781 C 161.886719 113.054688 161.953125 113.0625 162.019531 113.0625 C 168.480469 113.0625 173.738281 107.804688 173.738281 101.34375 C 173.738281 99.296875 173.210938 97.375 172.285156 95.699219 L 172.285156 74.445312 C 172.285156 70.054688 170.957031 66.617188 168.335938 64.234375 C 166.296875 62.378906 163.921875 61.589844 162.019531 61.261719 C 161.710938 58.863281 160.785156 55.582031 158.210938 52.675781 C 154.515625 48.507812 148.675781 46.394531 140.847656 46.394531 L 126.445312 46.394531 C 119.109375 46.394531 112.296875 49.691406 107.757812 55.441406 C 103.15625 61.269531 101.511719 68.78125 103.246094 76.050781 C 104.507812 81.351562 105.097656 85.910156 105.007812 89.640625 C 98.835938 89.964844 93.910156 95.089844 93.910156 101.34375 C 93.910156 107.660156 98.9375 112.824219 105.203125 113.050781 C 106.425781 121.394531 111.261719 128.574219 118.070312 132.953125 L 118.070312 139.9375 C 116.917969 138.933594 115.21875 138.875 114.003906 139.804688 L 105.765625 146.105469 C 102.230469 147.625 78.097656 158.503906 72.472656 174.535156 C 70.238281 180.902344 67.746094 188.195312 65.0625 196.214844 C 63.859375 199.8125 64.4375 203.640625 66.652344 206.71875 C 68.875 209.804688 72.335938 211.574219 76.144531 211.574219 L 83.363281 211.574219 C 83.429688 212.40625 83.601562 213.207031 83.867188 213.964844 L 61.632812 213.964844 C 59.859375 213.964844 58.421875 215.402344 58.421875 217.175781 C 58.421875 218.949219 59.859375 220.386719 61.632812 220.386719 L 205.101562 220.386719 C 206.875 220.386719 208.3125 218.949219 208.3125 217.175781 C 208.3125 215.402344 206.875 213.964844 205.101562 213.964844 Z M 188.203125 176.664062 C 190.425781 183 192.910156 190.261719 195.582031 198.253906 C 196.121094 199.867188 195.863281 201.585938 194.867188 202.964844 C 193.867188 204.355469 192.308594 205.152344 190.589844 205.152344 L 183.40625 205.152344 L 183.40625 168.921875 C 185.695312 171.527344 187.3125 174.128906 188.203125 176.664062 Z M 150.921875 146.507812 L 157.390625 151.453125 C 157.410156 151.46875 157.429688 151.480469 157.453125 151.496094 C 157.5 151.535156 157.550781 151.570312 157.605469 151.601562 C 157.648438 151.628906 157.691406 151.65625 157.738281 151.683594 C 157.78125 151.707031 157.828125 151.734375 157.871094 151.757812 C 157.929688 151.785156 157.984375 151.8125 158.042969 151.835938 C 158.0625 151.847656 158.085938 151.859375 158.109375 151.871094 C 158.148438 151.886719 160.761719 152.980469 164.449219 154.929688 L 141.367188 154.929688 Z M 162.125 106.632812 L 162.125 97.488281 C 162.125 97 162.121094 96.523438 162.113281 96.050781 C 164.992188 96.097656 167.316406 98.453125 167.316406 101.34375 C 167.316406 104.226562 164.996094 106.578125 162.125 106.632812 Z M 112.800781 59.421875 C 116.113281 55.222656 121.085938 52.816406 126.445312 52.816406 L 140.847656 52.816406 C 146.714844 52.816406 150.921875 54.183594 153.351562 56.875 C 156.097656 59.921875 155.726562 63.886719 155.726562 63.898438 C 155.609375 64.863281 155.9375 65.832031 156.613281 66.527344 C 157.292969 67.222656 158.25 67.570312 159.21875 67.480469 C 159.25 67.476562 162.144531 67.285156 164.011719 68.984375 C 165.242188 70.101562 165.863281 71.941406 165.863281 74.445312 L 165.863281 90.273438 C 164.660156 89.855469 163.367188 89.621094 162.019531 89.621094 C 161.925781 89.621094 161.832031 89.628906 161.738281 89.636719 C 159.757812 71.015625 150.828125 69.378906 149.699219 69.246094 C 148.503906 69.105469 147.324219 69.660156 146.652344 70.65625 C 146.363281 71.082031 139.414062 81.078125 123.167969 79.132812 C 122.710938 79.082031 122.269531 79.125 121.855469 79.25 C 121.605469 79.210938 121.347656 79.195312 121.085938 79.21875 C 116.96875 79.566406 113.554688 80.574219 110.9375 82.148438 C 110.613281 79.777344 110.132812 77.246094 109.492188 74.5625 C 108.21875 69.214844 109.421875 63.695312 112.800781 59.421875 Z M 100.332031 101.34375 C 100.332031 98.671875 102.320312 96.460938 104.894531 96.101562 L 104.894531 106.582031 C 102.320312 106.222656 100.332031 104.011719 100.332031 101.34375 Z M 111.316406 108.882812 L 111.316406 92.832031 C 111.316406 87.589844 116.921875 86.015625 121.625 85.617188 C 121.855469 85.597656 122.074219 85.554688 122.285156 85.492188 C 122.324219 85.496094 122.363281 85.507812 122.402344 85.511719 C 137.839844 87.359375 146.691406 80.203125 150.21875 76.402344 C 152.175781 78.066406 155.703125 83.074219 155.703125 97.488281 L 155.703125 108.351562 C 155.703125 108.441406 155.710938 108.53125 155.714844 108.617188 C 155.710938 108.707031 155.703125 108.792969 155.703125 108.882812 C 155.703125 121.121094 145.746094 131.074219 133.511719 131.074219 C 121.273438 131.074219 111.316406 121.121094 111.316406 108.882812 Z M 133.511719 137.496094 C 136.972656 137.496094 140.296875 136.878906 143.371094 135.746094 L 143.371094 144.605469 L 133.367188 153.421875 L 124.492188 145.597656 L 124.492188 136.035156 C 127.328125 136.980469 130.359375 137.5 133.511719 137.5 Z M 115.8125 146.507812 L 125.367188 154.929688 L 102.292969 154.929688 C 105.949219 152.996094 108.542969 151.902344 108.625 151.871094 C 108.648438 151.859375 108.667969 151.847656 108.691406 151.839844 C 108.75 151.8125 108.804688 151.785156 108.863281 151.757812 C 108.910156 151.734375 108.953125 151.707031 109 151.683594 C 109.042969 151.65625 109.085938 151.632812 109.128906 151.605469 C 109.183594 151.570312 109.234375 151.53125 109.289062 151.492188 C 109.308594 151.480469 109.328125 151.46875 109.34375 151.453125 Z M 71.867188 202.964844 C 70.871094 201.585938 70.613281 199.867188 71.152344 198.253906 C 73.824219 190.261719 76.308594 183 78.53125 176.664062 C 79.496094 173.914062 81.203125 171.308594 83.328125 168.886719 L 83.328125 205.152344 L 76.144531 205.152344 C 74.425781 205.152344 72.867188 204.355469 71.867188 202.964844 Z M 161.988281 213.964844 L 92.910156 213.964844 C 91.167969 213.964844 89.75 212.546875 89.75 210.804688 L 89.75 164.511719 C 89.75 162.769531 91.167969 161.351562 92.910156 161.351562 L 173.824219 161.351562 C 175.566406 161.351562 176.984375 162.769531 176.984375 164.511719 L 176.984375 210.804688 C 176.984375 212.546875 175.566406 213.964844 173.824219 213.964844 Z M 161.988281 213.964844 " fill-opacity="1" fill-rule="nonzero"/></g></svg>