<?xml version="1.0" standalone="no"?>
<!DOCTYPE svg PUBLIC "-//W3C//DTD SVG 20010904//EN"
 "http://www.w3.org/TR/2001/REC-SVG-20010904/DTD/svg10.dtd">
<svg version="1.0" xmlns="http://www.w3.org/2000/svg"
 width="158.000000pt" height="178.000000pt" viewBox="0 0 158.000000 178.000000"
 preserveAspectRatio="xMidYMid meet">

<g transform="translate(0.000000,178.000000) scale(0.100000,-0.100000)"
fill="#000000" stroke="none">
<path d="M637 1756 c-124 -46 -178 -150 -151 -298 19 -108 18 -128 -7 -128
-12 0 -36 -15 -55 -34 -29 -29 -34 -41 -34 -81 0 -40 5 -52 34 -81 19 -19 43
-34 53 -34 14 0 23 -11 31 -37 15 -52 65 -128 96 -149 32 -20 38 -84 8 -84 -9
0 -33 -13 -52 -28 -19 -16 -66 -45 -105 -66 -143 -78 -226 -149 -268 -232 -23
-45 -97 -263 -97 -286 0 -34 29 -83 59 -101 17 -10 50 -17 80 -17 39 0 51 -4
51 -15 0 -13 -20 -15 -120 -15 -98 0 -122 -3 -126 -15 -4 -8 -1 -22 6 -30 19
-23 1471 -23 1490 0 7 8 10 22 6 30 -4 12 -28 15 -126 15 -100 0 -120 2 -120
15 0 11 12 15 51 15 30 0 63 7 80 17 30 18 59 67 59 101 0 23 -80 253 -104
301 -36 68 -155 165 -286 231 -25 13 -61 36 -80 51 -19 16 -40 29 -47 29 -8 0
-13 13 -13 31 0 23 11 44 40 76 39 41 80 118 80 149 0 8 10 14 25 14 14 0 39
13 57 29 l33 29 -3 169 c-2 92 -7 184 -13 204 -10 38 -41 73 -76 84 -13 3 -23
13 -23 22 0 30 -39 79 -82 103 -39 23 -55 25 -178 28 -96 1 -146 -2 -173 -12z
m264 -56 c65 -12 99 -43 108 -96 5 -33 11 -39 41 -47 57 -15 60 -20 60 -128 0
-88 -2 -99 -18 -99 -13 0 -22 16 -35 66 -20 78 -45 117 -86 134 -29 12 -33 10
-77 -29 -54 -47 -94 -61 -180 -61 -33 0 -81 -6 -107 -14 l-45 -14 -11 44 c-16
63 -14 102 10 151 36 74 93 100 220 102 37 1 91 -4 120 -9z m85 -282 c26 -65
33 -293 9 -354 -50 -130 -185 -185 -308 -125 -93 45 -126 116 -127 274 0 146
5 151 166 160 85 5 168 33 200 68 26 29 40 23 60 -23z m-488 -230 l-3 -33 -22
23 c-13 12 -23 29 -23 37 0 8 10 25 23 38 l22 22 3 -27 c2 -15 2 -42 0 -60z
m622 51 c6 -10 10 -22 10 -28 0 -14 -37 -51 -50 -51 -11 0 -14 92 -4 103 9 9
34 -4 44 -24z m-230 -419 c0 -29 -8 -43 -37 -71 -70 -65 -67 -64 -112 -23 -37
32 -41 41 -41 83 l0 46 95 0 95 0 0 -35z m-230 -110 l45 -39 -115 0 -115 -1
52 30 c28 16 54 34 58 40 11 18 29 11 75 -30z m325 30 c4 -6 30 -24 58 -40
l52 -30 -115 1 -115 0 44 39 c44 40 65 48 76 30z m219 -136 c14 -5 16 -38 16
-260 0 -240 -1 -254 -19 -264 -21 -11 -788 -15 -828 -4 l-23 6 0 258 c0 197 3
260 13 263 18 8 822 8 841 1z m-924 -264 l0 -180 -38 0 c-46 0 -82 23 -82 54
0 50 96 306 115 306 3 0 5 -81 5 -180z m1089 17 c23 -67 41 -132 41 -144 0
-30 -36 -53 -82 -53 l-38 0 0 183 c1 180 1 182 20 159 10 -12 37 -77 59 -145z"/>
<path d="M802 471 c-10 -6 -45 -112 -79 -244 -16 -61 -10 -85 20 -74 15 6 19
17 57 147 12 41 25 85 31 98 20 49 3 93 -29 73z"/>
<path d="M592 387 c-28 -29 -52 -61 -52 -72 0 -18 91 -115 109 -115 5 0 14 7
22 16 11 13 6 21 -29 57 l-42 41 42 43 c34 35 41 47 32 60 -18 29 -28 25 -82
-30z"/>
<path d="M891 426 c-15 -18 -5 -40 38 -80 l30 -29 -39 -40 c-44 -44 -46 -49
-26 -66 19 -16 40 -4 87 46 57 61 57 59 -7 124 -32 32 -61 59 -65 59 -4 0 -12
-6 -18 -14z"/>
</g>
</svg>
