<svg xmlns="http://www.w3.org/2000/svg" xmlns:xlink="http://www.w3.org/1999/xlink" width="290" zoomAndPan="magnify" viewBox="0 0 217.5 217.499992" height="290" preserveAspectRatio="xMidYMid meet" version="1.0"><defs><clipPath id="fa8b6c7108"><path d="M 26 37.777344 L 190.570312 37.777344 L 190.570312 62 L 26 62 Z M 26 37.777344 " clip-rule="nonzero"/></clipPath></defs><path fill="#f3f7ff" d="M 36.101562 60.132812 L 184.949219 60.132812 C 187.265625 60.132812 189.195312 58.234375 189.195312 55.886719 L 189.195312 43.40625 C 189.195312 41.089844 187.296875 39.160156 184.949219 39.160156 L 31.695312 39.160156 C 29.378906 39.160156 27.449219 41.058594 27.449219 43.40625 L 27.449219 55.886719 C 27.449219 58.203125 29.347656 60.132812 31.695312 60.132812 Z M 36.101562 60.132812 " fill-opacity="1" fill-rule="evenodd"/><path fill="#f3f7ff" d="M 117.824219 153.789062 C 117.375 139.347656 96.40625 139.347656 95.988281 153.789062 C 96.40625 168.226562 117.375 168.226562 117.824219 153.789062 Z M 117.824219 153.789062 " fill-opacity="1" fill-rule="evenodd"/><path fill="#f3f7ff" d="M 74.503906 143.785156 L 74.503906 132.558594 C 74.503906 131.5 73.636719 130.628906 72.574219 130.628906 C 69.453125 130.628906 63.117188 130.628906 60 130.628906 C 58.9375 130.628906 58.070312 131.5 58.070312 132.558594 L 58.070312 143.785156 C 58.070312 144.847656 58.9375 145.714844 60 145.714844 L 72.574219 145.714844 C 73.636719 145.714844 74.503906 144.847656 74.503906 143.785156 Z M 74.503906 143.785156 " fill-opacity="1" fill-rule="evenodd"/><path fill="#f3f7ff" d="M 136.707031 138.1875 L 147.738281 147.160156 L 158.769531 138.1875 L 147.738281 129.214844 Z M 136.707031 138.1875 " fill-opacity="1" fill-rule="evenodd"/><path fill="#007bff" d="M 173.980469 178.839844 L 42.632812 178.839844 C 38.257812 178.839844 34.6875 174.820312 34.6875 169.898438 L 34.6875 60.132812 C 34.6875 59.359375 35.332031 58.714844 36.101562 58.714844 L 180.542969 58.714844 C 181.3125 58.714844 181.957031 59.359375 181.957031 60.132812 L 181.957031 169.898438 C 181.925781 174.820312 178.355469 178.839844 173.980469 178.839844 Z M 37.519531 61.515625 L 37.519531 169.867188 C 37.519531 173.246094 39.832031 176.011719 42.632812 176.011719 L 173.980469 176.011719 C 176.8125 176.011719 179.125 173.277344 179.125 169.867188 L 179.125 61.515625 Z M 37.519531 61.515625 " fill-opacity="1" fill-rule="nonzero"/><path fill="#007bff" d="M 72.574219 147.128906 L 60 147.128906 C 58.164062 147.128906 56.652344 145.617188 56.652344 143.785156 L 56.652344 132.558594 C 56.652344 130.726562 58.132812 129.214844 60 129.214844 L 72.574219 129.214844 C 74.40625 129.214844 75.917969 130.726562 75.917969 132.558594 L 75.917969 143.785156 C 75.917969 145.617188 74.40625 147.128906 72.574219 147.128906 Z M 60 132.078125 C 59.710938 132.078125 59.484375 132.304688 59.484375 132.59375 L 59.484375 143.816406 C 59.484375 144.105469 59.710938 144.332031 60 144.332031 L 72.574219 144.332031 C 72.863281 144.332031 73.089844 144.105469 73.089844 143.816406 L 73.089844 132.59375 C 73.089844 132.304688 72.863281 132.078125 72.574219 132.078125 Z M 60 132.078125 " fill-opacity="1" fill-rule="nonzero"/><path fill="#007bff" d="M 110.847656 124.96875 L 102.96875 124.96875 C 100.007812 124.875 99.042969 122.332031 99.332031 119.761719 C 98.527344 119.46875 97.757812 119.148438 97.015625 118.796875 C 95.441406 120.789062 92.867188 121.882812 90.777344 119.921875 C 90.777344 119.921875 85.214844 114.355469 85.214844 114.355469 C 83.796875 113.003906 83.796875 110.5625 85.214844 109.210938 L 86.339844 108.085938 C 85.984375 107.34375 85.664062 106.542969 85.375 105.769531 C 82.800781 106.058594 80.261719 105.09375 80.164062 102.136719 L 80.164062 94.253906 C 80.230469 91.296875 82.800781 90.332031 85.375 90.621094 C 85.664062 89.816406 85.984375 89.046875 86.339844 88.304688 L 85.214844 87.179688 C 83.796875 85.828125 83.796875 83.382812 85.214844 82.035156 L 90.777344 76.46875 C 92.867188 74.507812 95.441406 75.570312 97.015625 77.59375 C 97.757812 77.242188 98.5625 76.921875 99.332031 76.628906 C 99.042969 74.058594 100.007812 71.515625 102.96875 71.421875 L 110.847656 71.421875 C 113.773438 71.484375 114.738281 74.058594 114.480469 76.628906 C 115.285156 76.921875 116.058594 77.242188 116.796875 77.59375 C 118.40625 75.570312 120.945312 74.445312 123.035156 76.46875 L 128.601562 82.035156 C 130.015625 83.382812 130.015625 85.828125 128.601562 87.148438 C 128.601562 87.148438 127.476562 88.273438 127.476562 88.273438 C 127.828125 89.011719 128.148438 89.816406 128.441406 90.589844 C 131.011719 90.300781 133.554688 91.265625 133.648438 94.222656 L 133.648438 102.101562 C 133.585938 105.03125 131.011719 106.027344 128.441406 105.738281 C 128.148438 106.542969 127.828125 107.3125 127.476562 108.054688 L 128.601562 109.179688 C 130.015625 110.53125 130.015625 112.972656 128.601562 114.292969 C 128.601562 114.292969 123.035156 119.855469 123.035156 119.855469 C 120.945312 121.882812 118.371094 120.757812 116.796875 118.730469 C 116.023438 119.085938 115.253906 119.40625 114.480469 119.695312 C 114.738281 122.363281 113.773438 124.90625 110.847656 124.96875 Z M 96.726562 115.675781 C 98.238281 116.0625 99.589844 117.058594 101.132812 117.378906 C 101.746094 117.574219 102.132812 118.121094 102.132812 118.730469 L 102.132812 121.335938 C 102.132812 121.785156 102.484375 122.140625 102.933594 122.140625 L 110.816406 122.140625 C 111.265625 122.140625 111.617188 121.785156 111.617188 121.335938 C 111.746094 120.242188 111.105469 117.734375 112.617188 117.378906 C 114.320312 117.25 116.570312 114.839844 118.019531 116.0625 C 118.019531 116.0625 119.851562 117.894531 119.851562 117.894531 C 120.175781 118.214844 120.6875 118.214844 120.976562 117.894531 C 121.074219 117.734375 127.25 111.914062 126.800781 111.75 C 126.960938 111.300781 124.933594 109.660156 124.707031 109.339844 C 123.488281 107.859375 125.867188 105.640625 126.027344 103.9375 C 126.21875 103.324219 126.765625 102.9375 127.378906 102.9375 L 129.984375 102.9375 C 130.433594 102.9375 130.789062 102.585938 130.789062 102.136719 L 130.789062 94.253906 C 130.789062 93.804688 130.433594 93.453125 129.984375 93.453125 C 128.890625 93.324219 126.414062 93.964844 126.027344 92.453125 C 125.898438 90.71875 123.488281 88.5625 124.707031 87.050781 C 124.707031 87.050781 126.542969 85.21875 126.542969 85.21875 C 126.863281 84.894531 126.863281 84.382812 126.542969 84.09375 L 120.976562 78.527344 C 120.109375 77.59375 118.855469 79.6875 117.988281 80.363281 C 116.507812 81.582031 114.289062 79.203125 112.582031 79.042969 C 111.972656 78.851562 111.585938 78.304688 111.585938 77.691406 L 111.585938 75.085938 C 111.585938 74.636719 111.234375 74.28125 110.78125 74.28125 L 102.902344 74.28125 C 102.453125 74.28125 102.097656 74.636719 102.097656 75.085938 L 102.097656 77.691406 C 101.96875 79.558594 98.65625 79.492188 97.339844 80.585938 C 96.019531 81.421875 94.667969 79.171875 93.832031 78.496094 C 93.511719 78.175781 92.996094 78.175781 92.707031 78.496094 L 87.144531 84.058594 C 86.210938 84.929688 88.238281 86.117188 88.976562 87.050781 C 90.199219 88.59375 87.820312 90.71875 87.660156 92.453125 C 87.464844 93.066406 86.917969 93.453125 86.308594 93.453125 L 83.703125 93.453125 C 83.253906 93.453125 82.898438 93.804688 82.898438 94.253906 L 82.898438 102.136719 C 82.867188 103.390625 85.117188 102.808594 86.308594 102.9375 C 88.171875 103.066406 88.109375 106.378906 89.203125 107.699219 C 90.039062 109.019531 87.785156 110.367188 87.113281 111.203125 C 86.789062 111.496094 86.789062 112.039062 87.113281 112.332031 L 92.675781 117.894531 C 92.996094 118.214844 93.511719 118.214844 93.800781 117.894531 C 94.539062 117.410156 95.828125 115.578125 96.726562 115.675781 Z M 106.890625 112.585938 C 87.882812 111.976562 87.882812 84.414062 106.890625 83.800781 C 125.898438 84.414062 125.898438 111.976562 106.890625 112.585938 Z M 106.890625 86.632812 C 91.613281 87.117188 91.613281 109.273438 106.890625 109.757812 C 122.167969 109.273438 122.167969 87.117188 106.890625 86.632812 Z M 106.890625 86.632812 " fill-opacity="1" fill-rule="nonzero"/><path fill="#007bff" d="M 147.738281 130.628906 C 146.964844 130.628906 146.320312 129.988281 146.320312 129.214844 L 146.320312 99.625 L 132.265625 99.625 C 130.433594 99.625 130.402344 96.796875 132.265625 96.796875 L 147.738281 96.796875 C 148.507812 96.796875 149.152344 97.4375 149.152344 98.210938 L 149.152344 129.214844 C 149.152344 129.988281 148.507812 130.628906 147.738281 130.628906 Z M 147.738281 130.628906 " fill-opacity="1" fill-rule="nonzero"/><path fill="#007bff" d="M 147.738281 148.578125 C 147.414062 148.578125 147.09375 148.480469 146.835938 148.253906 L 135.804688 139.28125 C 135.128906 138.765625 135.128906 137.609375 135.804688 137.09375 L 146.835938 128.121094 C 147.351562 127.703125 148.089844 127.703125 148.605469 128.121094 L 159.636719 137.09375 C 160.3125 137.609375 160.3125 138.765625 159.636719 139.28125 L 148.605469 148.253906 C 148.378906 148.480469 148.058594 148.578125 147.738281 148.578125 Z M 138.925781 138.1875 L 147.738281 145.359375 L 156.515625 138.1875 L 147.738281 131.015625 Z M 138.925781 138.1875 " fill-opacity="1" fill-rule="nonzero"/><path fill="#007bff" d="M 106.890625 144.265625 C 106.121094 144.265625 105.476562 143.625 105.476562 142.851562 L 105.476562 123.554688 C 105.476562 122.78125 106.121094 122.140625 106.890625 122.140625 C 107.664062 122.140625 108.304688 122.78125 108.304688 123.554688 L 108.304688 142.851562 C 108.304688 143.625 107.664062 144.265625 106.890625 144.265625 Z M 106.890625 144.265625 " fill-opacity="1" fill-rule="nonzero"/><path fill="#007bff" d="M 106.890625 166.105469 C 90.585938 165.589844 90.585938 141.953125 106.890625 141.4375 C 123.195312 141.953125 123.195312 165.589844 106.890625 166.105469 Z M 106.890625 144.265625 C 94.347656 144.589844 94.347656 162.984375 106.890625 163.308594 C 119.433594 162.953125 119.433594 144.589844 106.890625 144.265625 Z M 106.890625 144.265625 " fill-opacity="1" fill-rule="nonzero"/><g clip-path="url(#fa8b6c7108)"><path fill="#007bff" d="M 184.917969 61.515625 L 31.695312 61.515625 C 28.578125 61.515625 26.035156 58.972656 26.035156 55.886719 L 26.035156 43.40625 C 26.035156 40.289062 28.578125 37.777344 31.695312 37.777344 L 184.949219 37.777344 C 188.066406 37.777344 190.578125 40.320312 190.578125 43.40625 L 190.578125 55.886719 C 190.578125 59.003906 188.035156 61.515625 184.917969 61.515625 Z M 31.695312 40.609375 C 30.152344 40.609375 28.867188 41.863281 28.867188 43.4375 L 28.867188 55.886719 C 28.867188 57.429688 30.121094 58.714844 31.695312 58.714844 L 184.949219 58.714844 C 186.492188 58.714844 187.777344 57.460938 187.777344 55.886719 L 187.777344 43.40625 C 187.777344 41.863281 186.523438 40.578125 184.949219 40.578125 L 31.695312 40.578125 Z M 31.695312 40.609375 " fill-opacity="1" fill-rule="nonzero"/></g><path fill="#007bff" d="M 66.046875 132.078125 C 65.273438 132.078125 64.628906 131.433594 64.628906 130.664062 L 64.628906 98.210938 C 64.628906 97.4375 65.273438 96.796875 66.046875 96.796875 L 81.515625 96.796875 C 83.347656 96.796875 83.378906 99.59375 81.515625 99.625 L 67.460938 99.625 L 67.460938 130.664062 C 67.460938 131.433594 66.847656 132.078125 66.046875 132.078125 Z M 66.046875 132.078125 " fill-opacity="1" fill-rule="nonzero"/></svg>