<svg xmlns="http://www.w3.org/2000/svg" xmlns:xlink="http://www.w3.org/1999/xlink" width="412" zoomAndPan="magnify" viewBox="0 0 309 263.250001" height="351" preserveAspectRatio="xMidYMid meet" version="1.0"><defs><clipPath id="f106cbd31d"><path d="M 10.644531 169 L 297.828125 169 L 297.828125 189 L 10.644531 189 Z M 10.644531 169 " clip-rule="nonzero"/></clipPath><clipPath id="8764cfd3a2"><path d="M 90 236 L 219 236 L 219 245.835938 L 90 245.835938 Z M 90 236 " clip-rule="nonzero"/></clipPath><clipPath id="3ba1a667d2"><path d="M 10.644531 16.238281 L 297.828125 16.238281 L 297.828125 160 L 10.644531 160 Z M 10.644531 16.238281 " clip-rule="nonzero"/></clipPath></defs><path fill="#007bff" d="M 189.34375 226.832031 C 184.878906 218.015625 183.050781 208.03125 184.179688 198.113281 L 124.300781 198.113281 C 125.429688 208.03125 123.597656 218.019531 119.136719 226.832031 Z M 189.34375 226.832031 " fill-opacity="1" fill-rule="nonzero"/><g clip-path="url(#f106cbd31d)"><path fill="#007bff" d="M 10.652344 184.351562 C 10.652344 186.664062 12.53125 188.539062 14.839844 188.539062 L 293.632812 188.539062 C 295.941406 188.539062 297.820312 186.664062 297.820312 184.351562 L 297.820312 169.394531 L 10.652344 169.394531 Z M 278.675781 174.183594 L 283.460938 174.183594 C 286.105469 174.183594 288.25 176.324219 288.25 178.96875 C 288.25 181.613281 286.105469 183.753906 283.460938 183.753906 L 278.675781 183.753906 C 276.035156 183.753906 273.890625 181.613281 273.890625 178.96875 C 273.890625 176.324219 276.035156 174.183594 278.675781 174.183594 Z M 259.53125 174.183594 L 264.316406 174.183594 C 266.960938 174.183594 269.105469 176.324219 269.105469 178.96875 C 269.105469 181.613281 266.960938 183.753906 264.316406 183.753906 L 259.53125 183.753906 C 256.886719 183.753906 254.746094 181.613281 254.746094 178.96875 C 254.746094 176.324219 256.886719 174.183594 259.53125 174.183594 Z M 240.386719 174.183594 L 245.171875 174.183594 C 247.816406 174.183594 249.960938 176.324219 249.960938 178.96875 C 249.960938 181.613281 247.816406 183.753906 245.171875 183.753906 L 240.386719 183.753906 C 237.742188 183.753906 235.601562 181.613281 235.601562 178.96875 C 235.601562 176.324219 237.742188 174.183594 240.386719 174.183594 Z M 115.945312 174.183594 L 192.527344 174.183594 C 195.167969 174.183594 197.3125 176.324219 197.3125 178.96875 C 197.3125 181.613281 195.167969 183.753906 192.527344 183.753906 L 115.945312 183.753906 C 113.304688 183.753906 111.160156 181.613281 111.160156 178.96875 C 111.160156 176.324219 113.304688 174.183594 115.945312 174.183594 Z M 58.511719 174.183594 L 77.65625 174.183594 C 80.300781 174.183594 82.445312 176.324219 82.445312 178.96875 C 82.445312 181.613281 80.300781 183.753906 77.65625 183.753906 L 58.511719 183.753906 C 55.871094 183.753906 53.726562 181.613281 53.726562 178.96875 C 53.726562 176.324219 55.871094 174.183594 58.511719 174.183594 Z M 25.007812 174.183594 L 44.152344 174.183594 C 46.796875 174.183594 48.941406 176.324219 48.941406 178.96875 C 48.941406 181.613281 46.796875 183.753906 44.152344 183.753906 L 25.007812 183.753906 C 22.367188 183.753906 20.222656 181.613281 20.222656 178.96875 C 20.222656 176.324219 22.367188 174.183594 25.007812 174.183594 Z M 25.007812 174.183594 " fill-opacity="1" fill-rule="nonzero"/></g><path fill="#007bff" d="M 33.644531 80.414062 C 34.535156 84.796875 36.246094 88.921875 38.726562 92.667969 C 39.984375 94.566406 39.730469 97.085938 38.121094 98.695312 L 35.328125 101.488281 L 39.78125 105.945312 L 42.574219 103.152344 C 44.183594 101.542969 46.707031 101.289062 48.601562 102.542969 C 52.351562 105.027344 56.472656 106.734375 60.859375 107.628906 C 63.089844 108.078125 64.691406 110.042969 64.691406 112.316406 L 64.691406 116.261719 L 70.992188 116.261719 L 70.992188 112.316406 C 70.992188 110.042969 72.59375 108.078125 74.824219 107.628906 C 79.210938 106.738281 83.332031 105.027344 87.082031 102.542969 C 88.976562 101.289062 91.5 101.542969 93.109375 103.152344 L 95.902344 105.945312 L 100.355469 101.488281 L 97.5625 98.695312 C 95.953125 97.085938 95.699219 94.566406 96.957031 92.667969 C 99.4375 88.921875 101.148438 84.796875 102.039062 80.414062 C 102.492188 78.183594 104.453125 76.578125 106.730469 76.578125 L 110.675781 76.578125 L 110.675781 70.28125 L 106.730469 70.28125 C 104.453125 70.28125 102.492188 68.675781 102.039062 66.445312 C 101.148438 62.0625 99.4375 57.9375 96.957031 54.191406 C 95.699219 52.292969 95.953125 49.773438 97.5625 48.164062 L 100.355469 45.371094 L 95.902344 40.914062 L 93.109375 43.707031 C 91.5 45.316406 88.976562 45.570312 87.082031 44.3125 C 83.332031 41.832031 79.210938 40.121094 74.828125 39.234375 C 72.59375 38.78125 70.992188 36.816406 70.992188 34.542969 L 70.992188 30.597656 L 64.691406 30.597656 L 64.691406 34.542969 C 64.691406 36.820312 63.089844 38.78125 60.855469 39.234375 C 56.472656 40.121094 52.351562 41.832031 48.601562 44.3125 C 46.707031 45.570312 44.183594 45.316406 42.574219 43.707031 L 39.78125 40.914062 L 35.328125 45.371094 L 38.121094 48.164062 C 39.730469 49.773438 39.984375 52.292969 38.726562 54.191406 C 36.246094 57.9375 34.535156 62.0625 33.644531 66.445312 C 33.191406 68.675781 31.230469 70.28125 28.953125 70.28125 L 25.007812 70.28125 L 25.007812 76.578125 L 28.953125 76.578125 C 31.230469 76.578125 33.191406 78.183594 33.644531 80.414062 Z M 68.085938 44.957031 C 83.917969 44.957031 96.800781 57.839844 96.800781 73.671875 C 96.800781 89.507812 83.917969 102.390625 68.085938 102.390625 C 52.25 102.390625 39.367188 89.507812 39.367188 73.671875 C 39.367188 57.839844 52.25 44.957031 68.085938 44.957031 Z M 68.085938 44.957031 " fill-opacity="1" fill-rule="nonzero"/><path fill="#007bff" d="M 87.230469 73.671875 C 87.230469 74.300781 87.199219 74.925781 87.136719 75.550781 C 87.074219 76.171875 86.984375 76.792969 86.863281 77.40625 C 86.738281 78.023438 86.585938 78.628906 86.40625 79.230469 C 86.222656 79.832031 86.011719 80.417969 85.773438 81 C 85.53125 81.578125 85.265625 82.144531 84.96875 82.699219 C 84.671875 83.25 84.351562 83.789062 84.003906 84.308594 C 83.65625 84.832031 83.28125 85.332031 82.882812 85.816406 C 82.484375 86.300781 82.066406 86.765625 81.621094 87.210938 C 81.179688 87.652344 80.714844 88.074219 80.230469 88.472656 C 79.746094 88.871094 79.242188 89.242188 78.722656 89.589844 C 78.199219 89.9375 77.664062 90.261719 77.109375 90.558594 C 76.558594 90.851562 75.992188 91.121094 75.410156 91.359375 C 74.832031 91.601562 74.242188 91.8125 73.640625 91.992188 C 73.042969 92.175781 72.433594 92.328125 71.820312 92.449219 C 71.203125 92.570312 70.585938 92.664062 69.960938 92.726562 C 69.335938 92.785156 68.710938 92.816406 68.085938 92.816406 C 67.457031 92.816406 66.832031 92.785156 66.207031 92.726562 C 65.585938 92.664062 64.964844 92.570312 64.351562 92.449219 C 63.734375 92.328125 63.128906 92.175781 62.527344 91.992188 C 61.925781 91.8125 61.339844 91.601562 60.757812 91.359375 C 60.179688 91.121094 59.613281 90.851562 59.058594 90.558594 C 58.507812 90.261719 57.96875 89.9375 57.449219 89.589844 C 56.925781 89.242188 56.425781 88.871094 55.941406 88.472656 C 55.453125 88.074219 54.992188 87.652344 54.546875 87.210938 C 54.105469 86.765625 53.683594 86.300781 53.285156 85.816406 C 52.886719 85.332031 52.515625 84.832031 52.167969 84.308594 C 51.820312 83.789062 51.496094 83.25 51.199219 82.699219 C 50.90625 82.144531 50.636719 81.578125 50.398438 81 C 50.15625 80.417969 49.945312 79.832031 49.765625 79.230469 C 49.582031 78.628906 49.429688 78.023438 49.308594 77.40625 C 49.1875 76.792969 49.09375 76.171875 49.03125 75.550781 C 48.972656 74.925781 48.941406 74.300781 48.941406 73.671875 C 48.941406 73.046875 48.972656 72.421875 49.03125 71.796875 C 49.09375 71.171875 49.1875 70.554688 49.308594 69.9375 C 49.429688 69.324219 49.582031 68.714844 49.765625 68.117188 C 49.945312 67.515625 50.15625 66.925781 50.398438 66.347656 C 50.636719 65.765625 50.90625 65.199219 51.199219 64.648438 C 51.496094 64.09375 51.820312 63.558594 52.167969 63.035156 C 52.515625 62.515625 52.886719 62.011719 53.285156 61.527344 C 53.683594 61.042969 54.105469 60.578125 54.546875 60.136719 C 54.992188 59.691406 55.453125 59.269531 55.941406 58.875 C 56.425781 58.476562 56.925781 58.101562 57.449219 57.753906 C 57.96875 57.40625 58.507812 57.085938 59.058594 56.789062 C 59.613281 56.492188 60.179688 56.226562 60.757812 55.984375 C 61.339844 55.746094 61.925781 55.535156 62.527344 55.351562 C 63.128906 55.171875 63.734375 55.019531 64.351562 54.894531 C 64.964844 54.773438 65.585938 54.683594 66.207031 54.621094 C 66.832031 54.558594 67.457031 54.527344 68.085938 54.527344 C 68.710938 54.527344 69.335938 54.558594 69.960938 54.621094 C 70.585938 54.683594 71.203125 54.773438 71.820312 54.894531 C 72.433594 55.019531 73.042969 55.171875 73.640625 55.351562 C 74.242188 55.535156 74.832031 55.746094 75.410156 55.984375 C 75.992188 56.226562 76.558594 56.492188 77.109375 56.789062 C 77.664062 57.085938 78.199219 57.40625 78.722656 57.753906 C 79.242188 58.101562 79.746094 58.476562 80.230469 58.875 C 80.714844 59.269531 81.179688 59.691406 81.621094 60.136719 C 82.066406 60.578125 82.484375 61.042969 82.882812 61.527344 C 83.28125 62.011719 83.65625 62.515625 84.003906 63.035156 C 84.351562 63.558594 84.671875 64.09375 84.96875 64.648438 C 85.265625 65.199219 85.53125 65.765625 85.773438 66.347656 C 86.011719 66.925781 86.222656 67.515625 86.40625 68.117188 C 86.585938 68.714844 86.738281 69.324219 86.863281 69.9375 C 86.984375 70.554688 87.074219 71.171875 87.136719 71.796875 C 87.199219 72.421875 87.230469 73.046875 87.230469 73.671875 Z M 87.230469 73.671875 " fill-opacity="1" fill-rule="nonzero"/><g clip-path="url(#8764cfd3a2)"><path fill="#007bff" d="M 212.667969 236.402344 L 95.804688 236.402344 C 95.292969 236.402344 94.832031 236.6875 94.601562 237.144531 L 90.1875 245.976562 L 218.285156 245.976562 L 213.871094 237.144531 C 213.640625 236.6875 213.179688 236.402344 212.667969 236.402344 Z M 212.667969 236.402344 " fill-opacity="1" fill-rule="nonzero"/></g><path fill="#007bff" d="M 139.878906 131.703125 C 139.878906 134.015625 141.757812 135.894531 144.066406 135.894531 L 279.273438 135.894531 C 281.585938 135.894531 283.460938 134.015625 283.460938 131.703125 L 283.460938 49.742188 L 139.878906 49.742188 Z M 197.3125 111.960938 L 187.738281 111.960938 C 185.097656 111.960938 182.953125 109.820312 182.953125 107.175781 C 182.953125 104.53125 185.097656 102.390625 187.738281 102.390625 L 197.3125 102.390625 C 199.953125 102.390625 202.097656 104.53125 202.097656 107.175781 C 202.097656 109.820312 199.953125 111.960938 197.3125 111.960938 Z M 211.671875 97.605469 L 202.097656 97.605469 C 199.453125 97.605469 197.3125 95.460938 197.3125 92.816406 C 197.3125 90.175781 199.453125 88.03125 202.097656 88.03125 L 211.671875 88.03125 C 214.3125 88.03125 216.457031 90.175781 216.457031 92.816406 C 216.457031 95.460938 214.3125 97.605469 211.671875 97.605469 Z M 221.242188 107.175781 C 221.242188 109.820312 219.097656 111.960938 216.457031 111.960938 L 211.671875 111.960938 C 209.027344 111.960938 206.882812 109.820312 206.882812 107.175781 C 206.882812 104.53125 209.027344 102.390625 211.671875 102.390625 L 216.457031 102.390625 C 219.097656 102.390625 221.242188 104.53125 221.242188 107.175781 Z M 221.242188 126.320312 L 206.882812 126.320312 C 204.242188 126.320312 202.097656 124.175781 202.097656 121.535156 C 202.097656 118.890625 204.242188 116.75 206.882812 116.75 L 221.242188 116.75 C 223.886719 116.75 226.027344 118.890625 226.027344 121.535156 C 226.027344 124.175781 223.886719 126.320312 221.242188 126.320312 Z M 240.386719 126.320312 L 235.601562 126.320312 C 232.957031 126.320312 230.816406 124.175781 230.816406 121.535156 C 230.816406 118.890625 232.957031 116.75 235.601562 116.75 L 240.386719 116.75 C 243.03125 116.75 245.171875 118.890625 245.171875 121.535156 C 245.171875 124.175781 243.03125 126.320312 240.386719 126.320312 Z M 245.171875 111.960938 L 230.816406 111.960938 C 228.171875 111.960938 226.027344 109.820312 226.027344 107.175781 C 226.027344 104.53125 228.171875 102.390625 230.816406 102.390625 L 245.171875 102.390625 C 247.816406 102.390625 249.960938 104.53125 249.960938 107.175781 C 249.960938 109.820312 247.816406 111.960938 245.171875 111.960938 Z M 245.171875 88.03125 C 245.171875 85.386719 247.316406 83.246094 249.960938 83.246094 L 254.746094 83.246094 C 257.390625 83.246094 259.53125 85.386719 259.53125 88.03125 C 259.53125 90.675781 257.390625 92.816406 254.746094 92.816406 L 249.960938 92.816406 C 247.316406 92.816406 245.171875 90.675781 245.171875 88.03125 Z M 273.890625 126.320312 L 254.746094 126.320312 C 252.101562 126.320312 249.960938 124.175781 249.960938 121.535156 C 249.960938 118.890625 252.101562 116.75 254.746094 116.75 L 273.890625 116.75 C 276.535156 116.75 278.675781 118.890625 278.675781 121.535156 C 278.675781 124.175781 276.535156 126.320312 273.890625 126.320312 Z M 273.890625 111.960938 L 259.53125 111.960938 C 256.886719 111.960938 254.746094 109.820312 254.746094 107.175781 C 254.746094 104.53125 256.886719 102.390625 259.53125 102.390625 L 273.890625 102.390625 C 276.535156 102.390625 278.675781 104.53125 278.675781 107.175781 C 278.675781 109.820312 276.535156 111.960938 273.890625 111.960938 Z M 273.890625 92.816406 L 269.105469 92.816406 C 266.460938 92.816406 264.316406 90.675781 264.316406 88.03125 C 264.316406 85.386719 266.460938 83.246094 269.105469 83.246094 L 273.890625 83.246094 C 276.535156 83.246094 278.675781 85.386719 278.675781 88.03125 C 278.675781 90.675781 276.535156 92.816406 273.890625 92.816406 Z M 273.890625 78.457031 L 269.105469 78.457031 C 266.460938 78.457031 264.316406 76.316406 264.316406 73.671875 C 264.316406 71.03125 266.460938 68.886719 269.105469 68.886719 L 273.890625 68.886719 C 276.535156 68.886719 278.675781 71.03125 278.675781 73.671875 C 278.675781 76.316406 276.535156 78.457031 273.890625 78.457031 Z M 254.746094 54.527344 L 273.890625 54.527344 C 276.535156 54.527344 278.675781 56.671875 278.675781 59.3125 C 278.675781 61.957031 276.535156 64.101562 273.890625 64.101562 L 254.746094 64.101562 C 252.101562 64.101562 249.960938 61.957031 249.960938 59.3125 C 249.960938 56.671875 252.101562 54.527344 254.746094 54.527344 Z M 249.960938 68.886719 L 254.746094 68.886719 C 257.390625 68.886719 259.53125 71.03125 259.53125 73.671875 C 259.53125 76.316406 257.390625 78.457031 254.746094 78.457031 L 249.960938 78.457031 C 247.316406 78.457031 245.171875 76.316406 245.171875 73.671875 C 245.171875 71.03125 247.316406 68.886719 249.960938 68.886719 Z M 230.816406 54.527344 L 240.386719 54.527344 C 243.03125 54.527344 245.171875 56.671875 245.171875 59.3125 C 245.171875 61.957031 243.03125 64.101562 240.386719 64.101562 L 230.816406 64.101562 C 228.171875 64.101562 226.027344 61.957031 226.027344 59.3125 C 226.027344 56.671875 228.171875 54.527344 230.816406 54.527344 Z M 230.816406 68.886719 L 235.601562 68.886719 C 238.242188 68.886719 240.386719 71.03125 240.386719 73.671875 C 240.386719 76.316406 238.242188 78.457031 235.601562 78.457031 L 230.816406 78.457031 C 228.171875 78.457031 226.027344 76.316406 226.027344 73.671875 C 226.027344 71.03125 228.171875 68.886719 230.816406 68.886719 Z M 226.027344 83.246094 L 235.601562 83.246094 C 238.242188 83.246094 240.386719 85.386719 240.386719 88.03125 C 240.386719 90.675781 238.242188 92.816406 235.601562 92.816406 L 226.027344 92.816406 C 223.386719 92.816406 221.242188 90.675781 221.242188 88.03125 C 221.242188 85.386719 223.386719 83.246094 226.027344 83.246094 Z M 199.441406 63.296875 C 197.242188 61.828125 196.648438 58.859375 198.113281 56.660156 C 199.582031 54.460938 202.554688 53.863281 204.753906 55.332031 L 219.109375 64.902344 C 220.441406 65.792969 221.242188 67.285156 221.242188 68.886719 C 221.242188 70.488281 220.441406 71.980469 219.109375 72.867188 L 204.753906 82.441406 C 203.9375 82.984375 203.015625 83.246094 202.101562 83.246094 C 200.554688 83.246094 199.039062 82.496094 198.113281 81.113281 C 196.648438 78.914062 197.242188 75.941406 199.441406 74.476562 L 207.828125 68.886719 Z M 173.886719 76.316406 L 183.457031 57.171875 C 184.640625 54.808594 187.515625 53.851562 189.878906 55.03125 C 192.246094 56.214844 193.203125 59.089844 192.019531 61.453125 L 182.449219 80.597656 C 181.609375 82.277344 179.917969 83.246094 178.164062 83.246094 C 177.445312 83.246094 176.714844 83.082031 176.027344 82.738281 C 173.660156 81.558594 172.703125 78.683594 173.886719 76.316406 Z M 178.167969 88.03125 L 187.738281 88.03125 C 190.382812 88.03125 192.527344 90.175781 192.527344 92.816406 C 192.527344 95.460938 190.382812 97.605469 187.738281 97.605469 L 178.167969 97.605469 C 175.523438 97.605469 173.378906 95.460938 173.378906 92.816406 C 173.378906 90.175781 175.523438 88.03125 178.167969 88.03125 Z M 146.792969 64.90625 L 161.152344 55.332031 C 163.351562 53.867188 166.324219 54.460938 167.789062 56.660156 C 169.257812 58.859375 168.664062 61.832031 166.464844 63.296875 L 158.078125 68.886719 L 166.464844 74.476562 C 168.664062 75.941406 169.257812 78.914062 167.789062 81.113281 C 166.867188 82.496094 165.351562 83.246094 163.804688 83.246094 C 162.890625 83.246094 161.96875 82.984375 161.152344 82.441406 L 146.792969 72.867188 C 145.464844 71.980469 144.664062 70.488281 144.664062 68.886719 C 144.664062 67.285156 145.464844 65.792969 146.792969 64.90625 Z M 149.449219 88.03125 L 163.808594 88.03125 C 166.453125 88.03125 168.59375 90.175781 168.59375 92.816406 C 168.59375 95.460938 166.453125 97.605469 163.808594 97.605469 L 149.449219 97.605469 C 146.808594 97.605469 144.664062 95.460938 144.664062 92.816406 C 144.664062 90.175781 146.808594 88.03125 149.449219 88.03125 Z M 149.449219 102.390625 L 173.378906 102.390625 C 176.023438 102.390625 178.167969 104.53125 178.167969 107.175781 C 178.167969 109.820312 176.023438 111.960938 173.378906 111.960938 L 149.449219 111.960938 C 146.808594 111.960938 144.664062 109.820312 144.664062 107.175781 C 144.664062 104.53125 146.808594 102.390625 149.449219 102.390625 Z M 149.449219 116.75 L 192.527344 116.75 C 195.167969 116.75 197.3125 118.890625 197.3125 121.535156 C 197.3125 124.175781 195.167969 126.320312 192.527344 126.320312 L 149.449219 126.320312 C 146.808594 126.320312 144.664062 124.175781 144.664062 121.535156 C 144.664062 118.890625 146.808594 116.75 149.449219 116.75 Z M 149.449219 116.75 " fill-opacity="1" fill-rule="nonzero"/><g clip-path="url(#3ba1a667d2)"><path fill="#007bff" d="M 293.632812 16.238281 L 14.839844 16.238281 C 12.53125 16.238281 10.652344 18.117188 10.652344 20.425781 L 10.652344 159.824219 L 297.820312 159.824219 L 297.820312 20.425781 C 297.820312 18.117188 295.941406 16.238281 293.632812 16.238281 Z M 125.519531 135.894531 C 125.519531 138.535156 123.375 140.679688 120.734375 140.679688 L 101.589844 140.679688 C 98.945312 140.679688 96.800781 138.535156 96.800781 135.894531 C 96.800781 133.25 98.945312 131.105469 101.589844 131.105469 L 120.734375 131.105469 C 123.375 131.105469 125.519531 133.25 125.519531 135.894531 Z M 15.4375 65.492188 C 15.4375 62.851562 17.582031 60.707031 20.222656 60.707031 L 25.222656 60.707031 C 26.089844 57.789062 27.257812 54.976562 28.710938 52.292969 L 25.175781 48.753906 C 24.277344 47.855469 23.773438 46.640625 23.773438 45.371094 C 23.773438 44.101562 24.277344 42.882812 25.175781 41.984375 L 36.398438 30.761719 C 37.296875 29.863281 38.511719 29.359375 39.78125 29.359375 C 41.050781 29.359375 42.269531 29.863281 43.167969 30.761719 L 46.703125 34.296875 C 49.386719 32.84375 52.199219 31.675781 55.121094 30.808594 L 55.121094 25.8125 C 55.121094 23.167969 57.261719 21.023438 59.90625 21.023438 L 75.777344 21.023438 C 78.421875 21.023438 80.566406 23.167969 80.566406 25.8125 L 80.566406 30.808594 C 83.484375 31.675781 86.296875 32.84375 88.980469 34.300781 L 92.515625 30.761719 C 93.414062 29.863281 94.632812 29.359375 95.902344 29.359375 C 97.171875 29.359375 98.386719 29.863281 99.285156 30.761719 L 110.511719 41.988281 C 111.40625 42.882812 111.910156 44.101562 111.910156 45.371094 C 111.910156 46.640625 111.40625 47.859375 110.511719 48.753906 L 106.972656 52.292969 C 108.425781 54.976562 109.59375 57.789062 110.464844 60.707031 L 115.460938 60.707031 C 118.105469 60.707031 120.246094 62.851562 120.246094 65.492188 L 120.246094 81.367188 C 120.246094 84.007812 118.105469 86.152344 115.460938 86.152344 L 110.464844 86.152344 C 109.59375 89.070312 108.425781 91.882812 106.972656 94.566406 L 110.507812 98.105469 C 111.40625 99 111.910156 100.21875 111.910156 101.488281 C 111.910156 102.757812 111.40625 103.976562 110.507812 104.875 L 99.285156 116.097656 C 98.386719 116.996094 97.171875 117.5 95.902344 117.5 C 94.632812 117.5 93.414062 116.996094 92.515625 116.097656 L 88.980469 112.558594 C 86.296875 114.015625 83.484375 115.179688 80.566406 116.050781 L 80.566406 121.046875 C 80.566406 123.691406 78.421875 125.835938 75.777344 125.835938 L 59.90625 125.835938 C 57.261719 125.835938 55.121094 123.691406 55.121094 121.046875 L 55.121094 116.050781 C 52.199219 115.179688 49.386719 114.015625 46.703125 112.558594 L 43.167969 116.097656 C 42.269531 116.996094 41.050781 117.5 39.78125 117.5 C 38.511719 117.5 37.296875 116.996094 36.398438 116.097656 L 25.175781 104.875 C 24.277344 103.976562 23.773438 102.757812 23.773438 101.488281 C 23.773438 100.21875 24.277344 99 25.175781 98.105469 L 28.710938 94.566406 C 27.257812 91.882812 26.089844 89.070312 25.21875 86.152344 L 20.222656 86.152344 C 17.582031 86.152344 15.4375 84.007812 15.4375 81.367188 Z M 92.015625 135.894531 C 92.015625 138.535156 89.871094 140.679688 87.230469 140.679688 L 72.871094 140.679688 C 70.226562 140.679688 68.085938 138.535156 68.085938 135.894531 C 68.085938 133.25 70.226562 131.105469 72.871094 131.105469 L 87.230469 131.105469 C 89.871094 131.105469 92.015625 133.25 92.015625 135.894531 Z M 63.300781 135.894531 C 63.300781 138.535156 61.15625 140.679688 58.511719 140.679688 L 44.152344 140.679688 C 41.511719 140.679688 39.367188 138.535156 39.367188 135.894531 C 39.367188 133.25 41.511719 131.105469 44.152344 131.105469 L 58.511719 131.105469 C 61.15625 131.105469 63.300781 133.25 63.300781 135.894531 Z M 20.222656 131.105469 L 29.796875 131.105469 C 32.4375 131.105469 34.582031 133.25 34.582031 135.894531 C 34.582031 138.535156 32.4375 140.679688 29.796875 140.679688 L 20.222656 140.679688 C 17.582031 140.679688 15.4375 138.535156 15.4375 135.894531 C 15.4375 133.25 17.582031 131.105469 20.222656 131.105469 Z M 44.152344 155.039062 L 20.222656 155.039062 C 17.582031 155.039062 15.4375 152.894531 15.4375 150.25 C 15.4375 147.609375 17.582031 145.464844 20.222656 145.464844 L 44.152344 145.464844 C 46.796875 145.464844 48.941406 147.609375 48.941406 150.25 C 48.941406 152.894531 46.796875 155.039062 44.152344 155.039062 Z M 77.65625 155.039062 L 58.511719 155.039062 C 55.871094 155.039062 53.726562 152.894531 53.726562 150.25 C 53.726562 147.609375 55.871094 145.464844 58.511719 145.464844 L 77.65625 145.464844 C 80.300781 145.464844 82.445312 147.609375 82.445312 150.25 C 82.445312 152.894531 80.300781 155.039062 77.65625 155.039062 Z M 101.589844 155.039062 L 92.015625 155.039062 C 89.371094 155.039062 87.230469 152.894531 87.230469 150.25 C 87.230469 147.609375 89.371094 145.464844 92.015625 145.464844 L 101.589844 145.464844 C 104.230469 145.464844 106.375 147.609375 106.375 150.25 C 106.375 152.894531 104.230469 155.039062 101.589844 155.039062 Z M 125.519531 155.039062 L 115.945312 155.039062 C 113.304688 155.039062 111.160156 152.894531 111.160156 150.25 C 111.160156 147.609375 113.304688 145.464844 115.945312 145.464844 L 125.519531 145.464844 C 128.164062 145.464844 130.304688 147.609375 130.304688 150.25 C 130.304688 152.894531 128.164062 155.039062 125.519531 155.039062 Z M 293.035156 131.703125 C 293.035156 139.292969 286.863281 145.464844 279.273438 145.464844 L 144.066406 145.464844 C 136.476562 145.464844 130.304688 139.292969 130.304688 131.703125 L 130.304688 34.785156 C 130.304688 27.199219 136.476562 21.023438 144.066406 21.023438 L 279.273438 21.023438 C 286.863281 21.023438 293.035156 27.199219 293.035156 34.785156 Z M 293.035156 131.703125 " fill-opacity="1" fill-rule="nonzero"/></g><path fill="#007bff" d="M 279.273438 30.597656 L 144.066406 30.597656 C 141.757812 30.597656 139.878906 32.476562 139.878906 34.785156 L 139.878906 40.167969 L 283.460938 40.167969 L 283.460938 34.785156 C 283.460938 32.476562 281.585938 30.597656 279.273438 30.597656 Z M 279.273438 30.597656 " fill-opacity="1" fill-rule="nonzero"/></svg>