<svg xmlns="http://www.w3.org/2000/svg" xmlns:xlink="http://www.w3.org/1999/xlink" width="238" zoomAndPan="magnify" viewBox="0 0 178.5 178.499993" height="238" preserveAspectRatio="xMidYMid meet" version="1.0"><defs><clipPath id="8d90d6762e"><path d="M 66 12.445312 L 118 12.445312 L 118 64 L 66 64 Z M 66 12.445312 " clip-rule="nonzero"/></clipPath><clipPath id="9a701c0f63"><path d="M 114 50 L 165.015625 50 L 165.015625 102 L 114 102 Z M 114 50 " clip-rule="nonzero"/></clipPath><clipPath id="40194f5bf5"><path d="M 12.445312 63 L 115 63 L 115 165.015625 L 12.445312 165.015625 Z M 12.445312 63 " clip-rule="nonzero"/></clipPath></defs><g clip-path="url(#8d90d6762e)"><path fill="#007bff" d="M 117.570312 41.113281 L 117.570312 34.742188 L 110.371094 32.355469 C 110.003906 31.175781 109.535156 30.042969 108.96875 28.945312 L 112.347656 22.160156 L 108.011719 17.667969 L 101.070312 21.046875 C 99.972656 20.480469 98.835938 20.011719 97.660156 19.644531 L 95.269531 12.445312 L 88.898438 12.445312 L 86.511719 19.644531 C 85.332031 20.011719 84.199219 20.480469 83.101562 21.046875 L 76.316406 17.667969 L 71.824219 22.160156 L 75.203125 28.945312 C 74.636719 30.042969 74.167969 31.175781 73.800781 32.355469 L 66.601562 34.742188 L 66.601562 41.113281 L 73.800781 43.503906 C 74.167969 44.679688 74.636719 45.816406 75.203125 46.914062 L 71.824219 53.855469 L 76.316406 58.347656 L 83.101562 54.972656 C 84.199219 55.539062 85.332031 56.003906 86.511719 56.375 L 88.898438 63.414062 L 95.269531 63.414062 L 97.660156 56.214844 C 98.835938 55.847656 99.972656 55.378906 101.070312 54.8125 L 108.011719 58.191406 L 112.347656 53.855469 L 108.96875 46.914062 C 109.535156 45.816406 110.003906 44.679688 110.371094 43.503906 Z M 92.085938 47.484375 C 91.457031 47.484375 90.835938 47.425781 90.222656 47.300781 C 89.605469 47.179688 89.007812 47 88.429688 46.757812 C 87.847656 46.519531 87.296875 46.222656 86.777344 45.875 C 86.253906 45.527344 85.769531 45.128906 85.328125 44.6875 C 84.882812 44.242188 84.488281 43.761719 84.140625 43.238281 C 83.789062 42.71875 83.496094 42.167969 83.253906 41.585938 C 83.015625 41.007812 82.835938 40.410156 82.710938 39.792969 C 82.589844 39.179688 82.527344 38.554688 82.527344 37.929688 C 82.527344 37.300781 82.589844 36.679688 82.710938 36.066406 C 82.835938 35.449219 83.015625 34.851562 83.253906 34.273438 C 83.496094 33.691406 83.789062 33.140625 84.140625 32.621094 C 84.488281 32.097656 84.882812 31.613281 85.328125 31.171875 C 85.769531 30.726562 86.253906 30.332031 86.777344 29.984375 C 87.296875 29.632812 87.847656 29.339844 88.429688 29.097656 C 89.007812 28.859375 89.605469 28.679688 90.222656 28.554688 C 90.835938 28.433594 91.457031 28.371094 92.085938 28.371094 C 92.710938 28.371094 93.335938 28.433594 93.949219 28.554688 C 94.566406 28.679688 95.164062 28.859375 95.742188 29.097656 C 96.324219 29.339844 96.871094 29.632812 97.394531 29.984375 C 97.917969 30.332031 98.398438 30.726562 98.84375 31.171875 C 99.285156 31.613281 99.683594 32.097656 100.03125 32.621094 C 100.378906 33.140625 100.675781 33.691406 100.914062 34.273438 C 101.15625 34.851562 101.335938 35.449219 101.457031 36.066406 C 101.582031 36.679688 101.640625 37.300781 101.640625 37.929688 C 101.640625 38.554688 101.582031 39.179688 101.457031 39.792969 C 101.335938 40.410156 101.15625 41.007812 100.914062 41.585938 C 100.675781 42.167969 100.378906 42.71875 100.03125 43.238281 C 99.683594 43.761719 99.285156 44.242188 98.84375 44.6875 C 98.398438 45.128906 97.917969 45.527344 97.394531 45.875 C 96.871094 46.222656 96.324219 46.519531 95.742188 46.757812 C 95.164062 47 94.566406 47.179688 93.949219 47.300781 C 93.335938 47.425781 92.710938 47.484375 92.085938 47.484375 Z M 92.085938 47.484375 " fill-opacity="1" fill-rule="nonzero"/></g><g clip-path="url(#9a701c0f63)"><path fill="#007bff" d="M 165.355469 79.34375 L 165.355469 72.972656 L 158.15625 70.582031 C 157.789062 69.40625 157.320312 68.269531 156.753906 67.171875 L 160.132812 60.386719 L 155.796875 55.894531 L 148.855469 59.273438 C 147.757812 58.707031 146.621094 58.238281 145.445312 57.871094 L 143.054688 50.671875 L 136.683594 50.671875 L 134.296875 57.871094 C 133.117188 58.238281 131.980469 58.707031 130.886719 59.273438 L 124.101562 55.894531 L 119.609375 60.386719 L 122.984375 67.171875 C 122.421875 68.269531 121.953125 69.40625 121.585938 70.582031 L 114.386719 72.972656 L 114.386719 79.34375 L 121.585938 81.730469 C 121.953125 82.910156 122.421875 84.042969 122.984375 85.140625 L 119.609375 92.085938 L 124.101562 96.578125 L 130.886719 93.199219 C 131.980469 93.765625 133.117188 94.234375 134.296875 94.601562 L 136.683594 101.640625 L 143.054688 101.640625 L 145.445312 94.441406 C 146.621094 94.074219 147.757812 93.605469 148.855469 93.039062 L 155.796875 96.417969 L 160.128906 92.085938 L 156.753906 85.140625 C 157.320312 84.042969 157.789062 82.910156 158.15625 81.730469 Z M 139.871094 85.714844 C 139.242188 85.714844 138.621094 85.652344 138.003906 85.53125 C 137.390625 85.40625 136.792969 85.226562 136.210938 84.988281 C 135.632812 84.746094 135.082031 84.453125 134.558594 84.101562 C 134.039062 83.753906 133.554688 83.359375 133.113281 82.914062 C 132.667969 82.472656 132.273438 81.988281 131.921875 81.464844 C 131.574219 80.945312 131.28125 80.394531 131.039062 79.8125 C 130.800781 79.234375 130.621094 78.636719 130.496094 78.019531 C 130.375 77.40625 130.3125 76.785156 130.3125 76.15625 C 130.3125 75.53125 130.375 74.90625 130.496094 74.292969 C 130.621094 73.675781 130.800781 73.078125 131.039062 72.5 C 131.28125 71.917969 131.574219 71.367188 131.921875 70.847656 C 132.273438 70.324219 132.667969 69.84375 133.113281 69.398438 C 133.554688 68.957031 134.039062 68.558594 134.558594 68.210938 C 135.082031 67.863281 135.632812 67.566406 136.210938 67.328125 C 136.792969 67.085938 137.390625 66.90625 138.003906 66.785156 C 138.621094 66.660156 139.242188 66.601562 139.871094 66.601562 C 140.496094 66.601562 141.117188 66.660156 141.734375 66.785156 C 142.351562 66.90625 142.949219 67.085938 143.527344 67.328125 C 144.105469 67.566406 144.65625 67.863281 145.179688 68.210938 C 145.703125 68.558594 146.183594 68.957031 146.628906 69.398438 C 147.070312 69.84375 147.46875 70.324219 147.816406 70.847656 C 148.164062 71.367188 148.460938 71.917969 148.699219 72.5 C 148.941406 73.078125 149.121094 73.675781 149.242188 74.292969 C 149.367188 74.90625 149.425781 75.53125 149.425781 76.15625 C 149.425781 76.785156 149.367188 77.40625 149.242188 78.019531 C 149.121094 78.636719 148.941406 79.234375 148.699219 79.8125 C 148.460938 80.394531 148.164062 80.945312 147.816406 81.464844 C 147.46875 81.988281 147.070312 82.472656 146.628906 82.914062 C 146.183594 83.359375 145.703125 83.753906 145.179688 84.101562 C 144.65625 84.453125 144.105469 84.746094 143.527344 84.988281 C 142.949219 85.226562 142.351562 85.40625 141.734375 85.53125 C 141.117188 85.652344 140.496094 85.714844 139.871094 85.714844 Z M 139.871094 85.714844 " fill-opacity="1" fill-rule="nonzero"/></g><g clip-path="url(#40194f5bf5)"><path fill="#424242" d="M 112.1875 105.402344 L 100.207031 101.417969 C 99.699219 100.015625 99.1875 98.742188 98.617188 97.53125 L 104.253906 86.222656 C 104.40625 85.921875 104.507812 85.605469 104.558594 85.273438 C 104.609375 84.941406 104.605469 84.609375 104.550781 84.277344 C 104.496094 83.945312 104.394531 83.628906 104.238281 83.332031 C 104.085938 83.03125 103.886719 82.765625 103.648438 82.527344 L 95.269531 74.148438 C 95.035156 73.914062 94.769531 73.71875 94.472656 73.566406 C 94.175781 73.414062 93.863281 73.3125 93.535156 73.257812 C 93.207031 73.203125 92.878906 73.203125 92.550781 73.25 C 92.21875 73.300781 91.90625 73.398438 91.605469 73.542969 L 80.265625 79.34375 C 79.054688 78.769531 77.78125 78.257812 76.378906 77.75 L 72.398438 65.773438 C 72.292969 65.453125 72.144531 65.160156 71.949219 64.890625 C 71.753906 64.621094 71.523438 64.386719 71.253906 64.191406 C 70.984375 63.992188 70.691406 63.84375 70.378906 63.738281 C 70.0625 63.632812 69.738281 63.578125 69.402344 63.574219 L 57.425781 63.574219 C 57.09375 63.578125 56.765625 63.632812 56.453125 63.738281 C 56.136719 63.84375 55.84375 63.992188 55.574219 64.191406 C 55.304688 64.386719 55.074219 64.621094 54.878906 64.890625 C 54.683594 65.160156 54.535156 65.453125 54.429688 65.773438 L 50.449219 77.75 C 49.046875 78.257812 47.773438 78.769531 46.5625 79.34375 L 35.253906 73.542969 C 34.953125 73.394531 34.636719 73.292969 34.304688 73.242188 C 33.972656 73.191406 33.640625 73.191406 33.308594 73.246094 C 32.976562 73.300781 32.660156 73.40625 32.359375 73.558594 C 32.0625 73.714844 31.792969 73.910156 31.558594 74.148438 L 23.179688 82.527344 C 22.945312 82.761719 22.75 83.03125 22.597656 83.324219 C 22.445312 83.621094 22.34375 83.933594 22.289062 84.261719 C 22.234375 84.589844 22.230469 84.921875 22.28125 85.25 C 22.328125 85.578125 22.425781 85.894531 22.574219 86.191406 L 28.371094 97.53125 C 27.796875 98.742188 27.289062 100.015625 26.777344 101.417969 L 14.640625 105.402344 C 14.324219 105.503906 14.03125 105.652344 13.761719 105.847656 C 13.492188 106.042969 13.257812 106.277344 13.0625 106.546875 C 12.863281 106.8125 12.710938 107.105469 12.605469 107.421875 C 12.5 107.738281 12.449219 108.0625 12.445312 108.394531 L 12.445312 120.375 C 12.449219 120.707031 12.5 121.03125 12.605469 121.347656 C 12.710938 121.664062 12.863281 121.957031 13.0625 122.226562 C 13.257812 122.492188 13.492188 122.726562 13.761719 122.921875 C 14.03125 123.117188 14.324219 123.265625 14.640625 123.367188 L 26.621094 127.351562 C 27.128906 128.753906 27.640625 130.027344 28.210938 131.238281 L 22.574219 142.546875 C 22.421875 142.847656 22.320312 143.164062 22.269531 143.496094 C 22.21875 143.828125 22.222656 144.160156 22.277344 144.492188 C 22.332031 144.824219 22.433594 145.140625 22.589844 145.4375 C 22.742188 145.738281 22.941406 146.003906 23.179688 146.242188 L 31.558594 154.621094 C 31.792969 154.855469 32.058594 155.050781 32.355469 155.203125 C 32.652344 155.355469 32.964844 155.457031 33.292969 155.511719 C 33.621094 155.566406 33.949219 155.566406 34.277344 155.519531 C 34.609375 155.46875 34.921875 155.371094 35.222656 155.226562 L 46.53125 149.585938 C 47.742188 150.160156 49.015625 150.667969 50.417969 151.179688 L 54.398438 163.15625 C 54.503906 163.472656 54.652344 163.765625 54.847656 164.039062 C 55.042969 164.308594 55.273438 164.539062 55.542969 164.738281 C 55.8125 164.933594 56.105469 165.085938 56.417969 165.191406 C 56.734375 165.296875 57.058594 165.351562 57.394531 165.355469 L 69.371094 165.355469 C 69.703125 165.351562 70.027344 165.296875 70.34375 165.191406 C 70.660156 165.085938 70.953125 164.933594 71.222656 164.738281 C 71.492188 164.539062 71.722656 164.308594 71.917969 164.039062 C 72.113281 163.765625 72.261719 163.472656 72.367188 163.15625 L 76.347656 151.179688 C 77.75 150.667969 79.023438 150.160156 80.234375 149.585938 L 91.542969 155.226562 C 91.847656 155.378906 92.164062 155.484375 92.5 155.535156 C 92.835938 155.589844 93.171875 155.589844 93.507812 155.535156 C 93.84375 155.480469 94.160156 155.375 94.460938 155.21875 C 94.761719 155.0625 95.03125 154.863281 95.269531 154.621094 L 103.648438 146.242188 C 103.886719 146.007812 104.078125 145.742188 104.230469 145.445312 C 104.382812 145.148438 104.488281 144.835938 104.539062 144.507812 C 104.59375 144.179688 104.597656 143.847656 104.550781 143.519531 C 104.5 143.191406 104.402344 142.875 104.253906 142.578125 L 98.617188 131.269531 C 99.1875 130.058594 99.699219 128.785156 100.207031 127.382812 L 112.1875 123.398438 C 112.503906 123.296875 112.796875 123.148438 113.066406 122.953125 C 113.335938 122.757812 113.570312 122.523438 113.765625 122.257812 C 113.964844 121.988281 114.117188 121.695312 114.222656 121.378906 C 114.328125 121.0625 114.382812 120.738281 114.386719 120.40625 L 114.386719 108.394531 C 114.382812 108.0625 114.328125 107.738281 114.222656 107.421875 C 114.117188 107.105469 113.964844 106.8125 113.765625 106.546875 C 113.570312 106.277344 113.335938 106.042969 113.066406 105.847656 C 112.796875 105.652344 112.503906 105.503906 112.1875 105.402344 Z M 108.011719 118.144531 C 96.035156 122.125 95.269531 121.902344 94.664062 123.941406 C 91.480469 134.039062 89.664062 127.636719 97.53125 143.40625 L 92.339844 148.597656 C 81.03125 142.960938 80.679688 142.226562 78.769531 143.3125 C 69.371094 148.28125 72.84375 141.6875 67.078125 159.238281 L 59.75 159.238281 C 55.769531 147.261719 55.992188 146.496094 53.953125 145.890625 C 43.855469 142.707031 50.257812 140.890625 34.488281 148.757812 L 29.296875 143.3125 C 34.933594 132 35.667969 131.652344 34.585938 129.738281 C 29.613281 120.34375 36.207031 123.941406 18.816406 118.046875 L 18.816406 110.722656 C 30.792969 106.738281 31.558594 106.960938 32.164062 104.828125 C 35.347656 94.730469 37.164062 101.132812 29.296875 85.363281 L 34.488281 80.171875 C 45.828125 85.839844 46.148438 86.542969 48.058594 85.460938 C 57.617188 80.488281 53.984375 87.082031 59.75 69.691406 L 67.078125 69.691406 C 71.058594 81.667969 70.835938 82.433594 72.875 83.039062 C 82.972656 86.222656 76.570312 88.039062 92.339844 80.171875 L 97.53125 85.363281 C 91.894531 96.671875 91.160156 97.023438 92.246094 98.933594 C 97.214844 108.332031 90.621094 104.859375 108.011719 110.625 Z M 108.011719 118.144531 " fill-opacity="1" fill-rule="nonzero"/></g><path fill="#007bff" d="M 57.203125 122.921875 L 63.574219 103.808594 C 63.707031 103.40625 63.914062 103.046875 64.195312 102.726562 C 64.472656 102.410156 64.800781 102.15625 65.179688 101.96875 C 65.558594 101.777344 65.960938 101.671875 66.382812 101.640625 C 66.804688 101.613281 67.21875 101.667969 67.621094 101.800781 C 68.019531 101.9375 68.382812 102.144531 68.699219 102.421875 C 69.019531 102.699219 69.273438 103.03125 69.460938 103.410156 C 69.648438 103.789062 69.757812 104.1875 69.785156 104.613281 C 69.816406 105.035156 69.761719 105.445312 69.625 105.847656 L 63.253906 124.960938 C 63.121094 125.363281 62.914062 125.722656 62.632812 126.039062 C 62.355469 126.359375 62.027344 126.613281 61.648438 126.800781 C 61.269531 126.988281 60.867188 127.097656 60.445312 127.125 C 60.023438 127.152344 59.609375 127.101562 59.210938 126.964844 C 58.808594 126.832031 58.449219 126.625 58.128906 126.34375 C 57.8125 126.066406 57.558594 125.738281 57.371094 125.359375 C 57.179688 124.980469 57.074219 124.578125 57.042969 124.15625 C 57.015625 123.734375 57.066406 123.324219 57.203125 122.921875 Z M 57.203125 122.921875 " fill-opacity="1" fill-rule="nonzero"/><path fill="#007bff" d="M 76.15625 123.941406 C 75.511719 123.945312 74.917969 123.769531 74.378906 123.410156 C 73.839844 123.054688 73.445312 122.574219 73.195312 121.976562 C 72.949219 121.378906 72.886719 120.765625 73.015625 120.128906 C 73.140625 119.496094 73.4375 118.949219 73.894531 118.496094 L 78.035156 114.386719 L 73.894531 110.273438 C 73.59375 109.976562 73.363281 109.628906 73.203125 109.238281 C 73.039062 108.847656 72.960938 108.4375 72.960938 108.015625 C 72.960938 107.589844 73.042969 107.183594 73.203125 106.789062 C 73.367188 106.398438 73.597656 106.054688 73.898438 105.753906 C 74.195312 105.453125 74.542969 105.222656 74.933594 105.058594 C 75.324219 104.898438 75.734375 104.816406 76.15625 104.816406 C 76.582031 104.816406 76.988281 104.898438 77.382812 105.058594 C 77.773438 105.222656 78.117188 105.453125 78.417969 105.75 L 84.789062 112.121094 C 85.089844 112.421875 85.324219 112.769531 85.488281 113.160156 C 85.652344 113.550781 85.730469 113.960938 85.730469 114.386719 C 85.730469 114.808594 85.652344 115.21875 85.488281 115.609375 C 85.324219 116.003906 85.089844 116.347656 84.789062 116.648438 C 77.84375 123.589844 77.878906 123.941406 76.15625 123.941406 Z M 76.15625 123.941406 " fill-opacity="1" fill-rule="nonzero"/><path fill="#007bff" d="M 50.671875 123.941406 C 48.953125 123.941406 48.855469 123.464844 42.039062 116.648438 C 41.738281 116.347656 41.503906 116.003906 41.339844 115.609375 C 41.179688 115.21875 41.097656 114.808594 41.097656 114.386719 C 41.097656 113.960938 41.179688 113.550781 41.339844 113.160156 C 41.503906 112.769531 41.738281 112.421875 42.039062 112.121094 L 48.410156 105.75 C 48.710938 105.453125 49.054688 105.21875 49.449219 105.058594 C 49.839844 104.894531 50.246094 104.816406 50.671875 104.816406 C 51.097656 104.816406 51.503906 104.894531 51.894531 105.058594 C 52.289062 105.21875 52.632812 105.453125 52.933594 105.75 C 53.234375 106.050781 53.464844 106.398438 53.625 106.789062 C 53.789062 107.179688 53.871094 107.589844 53.871094 108.011719 C 53.871094 108.4375 53.789062 108.847656 53.625 109.238281 C 53.464844 109.628906 53.234375 109.976562 52.933594 110.273438 L 48.792969 114.386719 L 52.933594 118.496094 C 53.394531 118.949219 53.6875 119.496094 53.8125 120.128906 C 53.941406 120.765625 53.878906 121.378906 53.632812 121.976562 C 53.382812 122.574219 52.992188 123.054688 52.453125 123.410156 C 51.910156 123.769531 51.320312 123.945312 50.671875 123.941406 Z M 50.671875 123.941406 " fill-opacity="1" fill-rule="nonzero"/></svg>